<?xml version="1.0" standalone="no"?>
<!DOCTYPE svg PUBLIC "-//W3C//DTD SVG 20010904//EN"
 "http://www.w3.org/TR/2001/REC-SVG-20010904/DTD/svg10.dtd">
<svg version="1.0" xmlns="http://www.w3.org/2000/svg"
 width="2560.000000pt" height="2560.000000pt" viewBox="0 0 2560.000000 2560.000000"
 preserveAspectRatio="xMidYMid meet">
<metadata>
Created by potrace 1.14, written by Peter Selinger 2001-2017
</metadata>
<g transform="translate(0.000000,2560.000000) scale(0.100000,-0.100000)"
fill="#000000" stroke="none">
<path d="M2645 15400 c-44 -33 -84 -63 -90 -67 -61 -48 -357 -253 -365 -253
-6 0 -8 -4 -5 -10 3 -5 -1 -10 -9 -10 -9 0 -16 -4 -16 -8 0 -5 -11 -14 -25
-20 -25 -12 -39 -22 -74 -52 -9 -9 -35 -27 -56 -40 -22 -13 -42 -27 -45 -30
-5 -6 -541 -390 -638 -457 -26 -18 -56 -39 -67 -47 -11 -8 -81 -58 -155 -110
-74 -52 -142 -101 -150 -109 -8 -8 -30 -22 -47 -33 -18 -10 -33 -22 -33 -26 0
-4 -6 -8 -14 -8 -8 0 -16 -3 -18 -8 -2 -4 -66 -52 -143 -107 -77 -55 -153
-109 -168 -120 -15 -11 -60 -42 -100 -70 -40 -27 -73 -53 -75 -57 -2 -5 -10
-8 -17 -8 -7 0 -15 -4 -17 -8 -1 -4 -39 -33 -83 -65 -44 -31 -89 -64 -100 -72
-11 -9 -45 -30 -75 -47 -30 -17 -56 -32 -58 -33 -1 -1 3 -15 9 -31 7 -16 13
-36 15 -44 2 -8 7 -23 13 -35 5 -11 25 -63 44 -115 19 -52 38 -104 43 -115 4
-11 8 -22 8 -25 1 -3 5 -11 9 -17 5 -7 5 -17 2 -23 -3 -5 -2 -10 3 -10 6 0 19
-28 30 -62 27 -83 90 -248 102 -270 6 -10 10 -25 10 -33 0 -8 4 -23 9 -33 16
-31 106 -272 113 -302 2 -8 5 -17 8 -20 6 -6 29 -68 35 -90 1 -8 15 -46 30
-85 15 -38 36 -95 48 -125 11 -30 26 -68 32 -85 7 -16 16 -41 20 -55 3 -14 12
-38 20 -55 16 -37 66 -170 69 -188 2 -6 9 -25 15 -42 17 -39 142 -377 145
-390 2 -5 7 -21 13 -35 15 -34 38 -95 59 -153 9 -26 20 -50 24 -52 3 -2 32 46
64 108 32 62 63 120 69 129 9 13 1 43 -37 144 -27 71 -49 133 -51 139 -1 5 -7
21 -13 35 -12 28 -138 370 -173 470 -12 36 -25 70 -29 75 -4 6 -19 44 -33 85
-14 41 -37 107 -52 145 -33 89 -36 99 -35 103 0 1 -7 16 -15 32 -8 16 -15 32
-14 35 0 3 -8 29 -19 58 -29 72 -143 380 -146 392 -2 6 -9 24 -16 40 -6 17
-16 41 -20 55 -5 14 -25 70 -46 125 -54 147 -67 185 -63 189 4 2 137 43 164
50 6 1 28 8 50 14 22 6 43 12 47 12 5 0 25 7 45 15 31 11 80 26 136 41 4 1 8
2 10 4 1 1 10 3 20 5 9 2 56 16 105 31 48 15 90 27 94 26 4 -1 23 5 42 13 20
9 36 13 36 11 0 -3 15 1 32 8 55 22 85 27 85 13 1 -6 4 -50 7 -97 3 -47 8
-114 11 -150 3 -36 8 -99 10 -140 3 -41 7 -109 10 -150 3 -41 8 -111 11 -155
3 -44 7 -105 9 -135 2 -30 6 -91 9 -135 9 -133 23 -321 32 -430 3 -38 8 -108
10 -155 3 -47 7 -105 9 -130 2 -25 6 -90 10 -145 3 -55 9 -127 11 -160 3 -33
5 -68 5 -77 0 -10 2 -18 5 -18 3 0 50 46 104 103 l99 102 -5 75 c-3 41 -7 102
-9 135 -7 106 -16 238 -21 310 -3 39 -7 93 -9 120 -8 123 -15 235 -21 300 -3
39 -7 95 -9 125 -2 30 -6 96 -9 145 -3 50 -9 124 -12 165 -3 41 -8 98 -9 125
-9 143 -17 265 -20 305 -2 25 -7 95 -10 156 l-6 111 46 1 c25 1 50 4 55 7 6 4
10 3 10 -2 0 -9 440 -9 464 0 9 4 16 3 16 -1 0 -8 443 -7 465 2 8 3 15 2 15
-2 0 -7 110 -6 143 2 9 2 17 1 17 -2 0 -8 444 -6 465 2 8 3 15 2 15 -2 0 -8
442 -7 464 1 9 4 16 3 16 -1 0 -8 443 -7 465 2 8 3 15 2 15 -2 0 -4 73 -6 162
-5 90 1 165 -2 168 -7 3 -4 5 -141 5 -304 0 -163 2 -296 5 -296 3 0 33 26 67
58 34 31 79 71 100 89 l39 31 -2 319 c-1 175 -2 321 -3 325 0 4 -70 7 -153 7
-84 -1 -160 0 -168 0 -9 1 -16 11 -17 24 0 21 -10 162 -18 272 -2 28 -6 84 -9
125 -10 144 -15 216 -22 300 -9 130 -12 181 -15 233 -1 26 -5 50 -10 53 -4 2
-39 -6 -76 -18 -37 -12 -70 -23 -73 -23 -3 -1 -12 -4 -20 -8 -8 -3 -51 -18
-95 -32 -44 -15 -89 -31 -100 -36 -11 -5 -29 -11 -40 -14 -11 -2 -146 -47
-300 -100 -154 -53 -315 -108 -357 -123 -77 -26 -87 -26 -92 0 -2 7 -9 27 -15
43 -7 17 -31 79 -52 139 -22 61 -44 115 -49 121 -6 7 -7 15 -3 18 3 4 1 12 -5
19 -5 7 -24 51 -40 98 -17 47 -43 117 -57 155 -15 39 -34 89 -42 113 -8 23
-20 42 -26 41 -7 0 -48 -27 -92 -59z m45 -473 c34 -87 63 -164 65 -170 1 -7
10 -30 20 -52 9 -22 18 -44 20 -50 1 -5 5 -18 10 -28 9 -22 7 -24 -25 -30 -14
-3 -38 -10 -55 -17 -16 -6 -37 -13 -45 -15 -8 -2 -42 -14 -75 -26 -33 -12
-222 -77 -420 -144 -198 -68 -371 -127 -385 -133 -14 -5 -29 -10 -35 -11 -8
-1 -43 -13 -115 -39 -8 -3 -19 -6 -25 -8 -5 -1 -75 -25 -155 -53 -80 -28 -146
-51 -148 -50 -1 0 -26 -8 -55 -19 -28 -11 -63 -23 -77 -27 -23 -6 -22 -5 7 16
17 13 41 31 53 39 74 51 186 135 188 142 2 4 8 8 13 8 9 0 116 74 129 89 3 3
34 26 70 50 36 25 67 48 68 53 2 4 8 8 13 8 5 0 17 7 26 15 10 8 65 48 123 89
58 41 110 79 117 85 7 6 15 11 18 11 3 0 11 5 18 10 52 44 73 60 79 60 4 0 18
11 32 25 14 14 29 25 33 25 5 0 24 13 43 30 19 16 40 29 47 30 7 0 16 6 20 13
7 11 66 57 121 92 26 17 186 134 197 144 6 5 13 6 17 3 4 -4 34 -78 68 -165z
m1286 -200 c1 -17 5 -61 9 -97 7 -73 14 -157 20 -240 2 -30 6 -80 9 -110 3
-30 8 -88 11 -129 4 -41 8 -78 11 -83 3 -4 -10 -8 -28 -9 -57 -1 -1408 0
-1738 1 l-315 1 45 18 c25 11 48 17 53 14 4 -2 7 0 7 5 0 5 6 9 13 9 10 1 213
72 290 102 15 6 27 8 27 5 0 -4 6 -2 13 3 6 6 44 20 82 32 39 13 79 27 90 32
22 10 212 77 235 83 8 2 29 10 45 16 17 7 41 14 54 16 14 3 29 8 35 11 21 13
166 60 166 54 0 -3 4 -1 8 4 4 6 36 20 72 31 67 22 263 91 290 101 8 4 18 7
23 8 4 2 9 4 12 5 3 1 8 3 13 4 4 1 12 4 17 7 6 4 24 10 40 14 35 10 36 10 55
18 58 25 155 55 162 51 4 -3 8 -1 8 4 0 6 23 16 50 23 28 7 50 17 50 21 0 5 3
7 8 5 4 -3 16 -1 27 3 25 10 28 7 31 -33z m-2831 -796 l0 -44 -75 -24 c-41
-12 -86 -25 -100 -28 -14 -2 -52 -13 -85 -24 -33 -11 -64 -21 -69 -21 -5 0 29
27 75 59 46 32 92 66 102 75 9 9 20 16 25 16 4 0 19 10 33 23 13 12 38 32 54
43 l30 21 5 -26 c3 -14 5 -46 5 -70z"/>
<path d="M16230 13432 c-56 -7 -216 -44 -271 -62 -103 -35 -258 -113 -303
-152 -11 -10 -24 -18 -29 -18 -4 0 -14 -6 -21 -12 -8 -7 -35 -31 -61 -53 -50
-42 -124 -114 -162 -158 -30 -36 -127 -177 -141 -207 -7 -14 -16 -32 -22 -40
-14 -22 -56 -119 -70 -165 -7 -22 -16 -45 -21 -51 -5 -6 -7 -13 -4 -16 3 -2 0
-20 -6 -39 -44 -147 -52 -390 -19 -554 6 -27 12 -59 14 -71 14 -73 128 -344
148 -352 4 -2 8 -10 8 -18 0 -8 4 -14 9 -14 5 0 12 -8 16 -19 3 -10 13 -28 23
-39 9 -12 28 -36 41 -54 39 -52 232 -238 247 -238 3 0 29 -18 59 -40 30 -22
55 -37 55 -33 0 4 4 3 8 -3 8 -13 177 -94 196 -94 7 0 16 -3 20 -7 4 -5 11 -8
14 -9 4 0 27 -6 52 -13 25 -7 52 -15 60 -16 8 -2 15 -4 15 -5 0 -2 26 -7 85
-17 58 -10 351 -9 410 1 25 5 55 9 68 10 12 0 22 5 22 10 0 5 3 7 6 3 3 -3 18
-1 33 5 14 5 34 11 44 13 39 8 97 32 191 79 123 61 178 96 244 156 12 11 24
20 27 20 2 0 33 28 67 63 60 60 89 94 140 162 12 17 25 32 28 35 15 14 111
203 135 265 19 51 25 68 29 95 1 9 5 20 8 25 13 22 38 175 43 270 2 28 4 52 5
55 1 3 1 10 0 15 -1 6 -3 42 -5 80 -2 39 -6 81 -10 95 -3 14 -7 40 -10 59 -2
18 -7 41 -10 51 -3 10 -8 28 -10 39 -3 12 -7 29 -9 39 -2 10 -12 36 -21 58 -9
21 -16 41 -16 44 0 3 -9 25 -20 50 -11 25 -20 50 -21 55 -1 6 -6 15 -10 20 -5
6 -33 51 -64 100 -30 50 -62 95 -70 101 -7 6 -14 14 -14 18 0 4 -10 17 -22 30
-13 13 -32 34 -44 47 -93 107 -298 248 -454 311 -56 23 -145 51 -202 64 -10 2
-26 6 -36 8 -75 17 -315 28 -392 18z m378 -165 c53 -11 100 -25 104 -31 4 -6
8 -8 8 -4 0 18 144 -47 257 -115 86 -52 91 -61 49 -96 -18 -15 -29 -67 -29
-131 1 -44 -17 -87 -30 -73 -4 3 -7 1 -7 -5 0 -7 -3 -11 -7 -10 -5 2 -36 -8
-71 -20 -51 -19 -65 -29 -75 -55 -17 -40 -21 -131 -8 -174 5 -18 6 -33 1 -33
-4 0 -31 -34 -59 -76 -42 -63 -51 -85 -52 -123 -1 -25 -2 -55 -3 -66 -3 -55
33 -142 81 -193 7 -7 13 -17 13 -21 0 -4 19 -18 41 -30 35 -20 57 -24 140 -25
94 -1 98 -2 113 -27 19 -33 26 -66 32 -164 5 -93 9 -124 17 -145 14 -38 56
-185 57 -202 0 -4 8 -27 16 -50 l15 -43 -60 -55 c-70 -64 -74 -67 -126 -101
-148 -98 -259 -145 -439 -185 -67 -15 -306 -25 -306 -13 0 3 -10 4 -22 2 -13
-2 -63 5 -113 17 -49 12 -98 22 -107 23 -10 1 -18 4 -18 7 0 3 -9 6 -20 7 -57
5 -310 150 -376 217 -12 11 -34 33 -50 47 -59 53 -217 259 -199 259 4 0 -2 12
-12 28 -26 37 -68 135 -88 203 -15 55 -20 77 -30 132 -3 15 -8 42 -11 60 -13
72 0 354 16 375 3 3 5 11 14 55 5 20 12 40 17 43 7 4 20 -26 24 -56 2 -13 30
-57 48 -78 12 -12 40 -28 64 -33 23 -6 45 -19 48 -28 14 -42 89 -99 125 -96 8
1 22 -2 30 -6 8 -4 33 -9 55 -13 45 -7 79 -13 83 -16 1 -2 5 -3 10 -4 4 -1 21
-12 39 -25 l32 -24 -19 -51 c-23 -65 -21 -199 4 -242 10 -16 53 -56 97 -89 44
-32 82 -68 84 -80 3 -11 6 -95 7 -186 l3 -167 50 -73 c65 -96 81 -109 128
-107 57 3 74 28 79 118 l3 76 71 70 c61 60 75 81 93 137 20 59 26 67 47 67 27
0 60 15 82 37 17 17 60 180 56 214 -1 13 -3 28 -3 32 -2 17 -98 111 -126 123
-17 7 -45 11 -64 10 -29 -2 -43 8 -137 101 -78 77 -112 103 -132 104 -15 1
-81 2 -147 3 -115 1 -123 2 -192 36 -63 31 -73 38 -73 62 0 33 32 66 63 62 12
-1 28 -3 36 -3 8 -1 11 -4 8 -7 -10 -10 33 -44 54 -44 21 0 54 44 44 59 -7 12
39 63 214 237 112 112 128 124 160 124 52 0 98 54 95 110 -1 14 -2 33 -3 44 0
10 -18 34 -38 52 -20 19 -33 34 -27 35 5 0 17 2 27 5 9 2 23 5 30 7 16 3 64
37 53 37 -5 0 -4 6 2 13 15 17 6 65 -15 86 -21 21 -25 21 -232 21 -129 0 -180
-3 -201 -14 -25 -12 -31 -12 -50 1 -22 15 -147 20 -174 7 -29 -14 34 30 67 47
207 107 508 146 745 96z m-888 -192 c-13 -14 -26 -22 -29 -19 -3 3 5 14 19 24
34 27 38 25 10 -5z m195 -67 c14 -32 47 -33 106 -4 42 22 64 26 135 26 81 0
84 -1 74 -19 -28 -53 -6 -100 74 -154 33 -23 27 -33 -22 -41 -34 -5 -62 -29
-218 -184 l-180 -178 -53 1 c-96 2 -161 -45 -183 -132 -10 -41 -13 -44 -37
-38 -35 9 -44 18 -67 64 -21 43 -44 59 -85 55 -32 -3 -43 14 -85 140 l-33 99
21 41 c24 46 96 156 113 171 6 6 31 34 54 63 62 75 75 80 112 42 48 -47 66
-45 133 21 43 42 55 49 91 49 32 0 42 -4 50 -22z m1260 -41 l27 -22 -21 -27
c-52 -65 7 -129 67 -74 19 16 21 16 41 -11 11 -15 24 -32 29 -38 4 -5 19 -28
32 -50 13 -22 27 -42 30 -45 5 -4 5 -19 1 -35 0 -2 -24 7 -52 22 -40 20 -69
26 -134 28 -99 4 -121 -7 -180 -92 -36 -51 -45 -58 -78 -60 -24 -2 -37 1 -38
9 -1 7 -3 34 -4 60 l-1 48 50 16 c28 9 57 21 64 27 6 5 12 6 12 2 0 -15 61 56
71 83 6 15 11 52 11 83 0 39 5 64 16 78 21 26 25 26 57 -2z m34 -355 c-4 -26
4 -44 27 -58 24 -16 26 -16 55 5 23 17 33 19 49 11 10 -6 23 -10 27 -9 4 1 24
1 44 0 29 -1 38 -6 42 -23 4 -12 5 -23 3 -25 -1 -2 -28 -5 -59 -7 -31 -2 -70
-11 -88 -20 -44 -22 -48 -21 -118 24 -34 22 -66 40 -71 40 -18 0 -19 18 -1 41
13 16 30 25 55 26 19 1 35 -1 35 -5z m-55 -198 c79 -49 121 -55 184 -28 49 22
149 25 157 6 7 -18 18 -107 19 -149 1 -18 3 -33 6 -33 5 0 4 -36 -4 -160 -9
-146 -50 -290 -122 -432 -32 -62 -94 -158 -104 -158 -3 0 -23 60 -43 134 -27
94 -39 160 -41 223 -2 48 -5 89 -6 91 -2 1 -3 5 -4 10 -13 49 -32 94 -50 114
-42 47 -66 55 -170 57 -111 2 -113 3 -163 89 -19 32 -25 56 -24 97 0 62 17
100 65 148 33 33 33 33 132 34 l98 0 70 -43z m-906 -426 l100 -101 56 -4 c48
-3 62 -9 91 -37 19 -18 32 -35 30 -37 -2 -3 -6 -16 -9 -29 -22 -107 -22 -107
-66 -113 -43 -6 -75 -34 -86 -77 -11 -41 -55 -130 -65 -130 -9 0 -60 -53 -100
-104 -11 -14 -23 -44 -27 -67 l-7 -42 -26 39 c-26 39 -26 43 -26 206 0 200 -1
203 -123 298 l-85 66 -1 65 c0 35 2 69 5 74 3 6 6 16 7 23 2 8 6 21 10 30 7
15 9 22 13 37 0 2 48 4 105 4 l104 0 100 -101z"/>
<path d="M16862 13010 c-26 -25 -24 -104 3 -124 21 -15 31 -15 59 1 22 12 31
93 12 118 -17 23 -51 26 -74 5z"/>
<path d="M16039 12943 c-60 -31 -75 -43 -77 -63 -6 -60 38 -70 122 -28 57 28
79 48 81 73 1 11 -35 55 -45 55 -4 0 -41 -17 -81 -37z"/>
<path d="M5329 13416 c-3 -3 -25 -8 -49 -11 -25 -3 -52 -7 -60 -10 -8 -2 -28
-7 -45 -9 -89 -16 -340 -121 -387 -164 -10 -8 -18 -11 -18 -6 0 5 -4 4 -8 -2
-4 -5 -28 -25 -54 -44 -27 -18 -48 -37 -48 -42 0 -4 -4 -8 -9 -8 -24 0 -188
-183 -247 -275 -54 -85 -128 -242 -139 -295 -2 -8 -12 -51 -24 -95 -26 -105
-34 -167 -36 -300 -1 -93 20 -287 37 -345 3 -8 8 -28 12 -45 12 -49 57 -166
84 -220 35 -71 123 -203 163 -246 19 -20 45 -49 60 -65 14 -16 47 -47 74 -69
27 -22 56 -47 65 -56 9 -8 23 -19 31 -23 32 -16 62 -35 68 -43 18 -24 298
-141 356 -148 11 -1 20 -3 20 -5 0 -2 22 -6 75 -14 19 -3 51 -8 70 -12 84 -15
290 -9 403 11 15 3 42 7 60 11 17 3 48 10 67 16 19 7 41 13 49 14 39 7 212 83
223 99 4 5 8 7 8 3 0 -8 138 84 185 123 16 13 52 47 80 74 43 43 65 68 134
151 18 22 120 194 115 194 -3 0 1 12 10 28 13 25 40 90 42 102 0 3 8 30 18 60
38 121 54 248 51 410 -3 136 -8 203 -15 220 -1 3 -2 8 -2 11 2 13 -47 185 -68
241 -12 32 -22 61 -22 65 -1 5 -8 14 -15 21 -7 7 -13 19 -13 26 0 6 -20 43
-45 80 -25 38 -45 72 -45 77 0 4 -3 9 -7 11 -5 2 -26 26 -48 53 -43 54 -165
175 -177 175 -4 0 -18 11 -31 24 -13 13 -38 31 -55 40 -16 8 -36 21 -44 28
-27 26 -268 135 -268 121 0 -3 -6 -1 -12 5 -7 5 -26 13 -43 16 -41 8 -115 24
-145 32 -30 8 -374 16 -381 10z m296 -460 c63 -9 186 -50 245 -83 82 -45 161
-114 216 -188 47 -62 116 -204 130 -267 1 -5 2 -9 4 -10 1 -2 3 -12 4 -23 2
-11 7 -40 12 -65 10 -55 11 -300 1 -355 -13 -69 -39 -169 -50 -190 -6 -11 -11
-22 -12 -25 0 -8 -66 -132 -76 -144 -48 -60 -113 -126 -154 -156 -52 -39 -148
-91 -175 -96 -8 -2 -40 -10 -70 -19 -94 -27 -227 -36 -337 -21 -71 9 -198 52
-253 84 -25 15 -53 30 -62 34 -10 4 -18 12 -18 18 0 5 -5 10 -10 10 -14 0 -84
70 -131 130 -43 55 -112 187 -104 199 3 5 1 12 -5 16 -10 6 -28 66 -35 118 -3
18 -7 43 -10 57 -3 14 -7 70 -9 125 -7 220 38 395 146 556 35 54 172 189 191
189 5 0 22 9 38 21 16 11 35 22 42 23 7 2 28 10 48 19 20 9 47 18 60 21 13 2
31 7 39 10 8 3 33 8 54 11 22 3 41 7 42 8 5 5 191 -1 239 -7z"/>
<path d="M8903 13392 c-16 -2 -23 -10 -24 -25 -4 -138 -3 -197 3 -197 3 0 4
-8 2 -17 -8 -33 -9 -143 -2 -143 4 0 5 -6 2 -14 -9 -23 -10 -146 -1 -146 5 0
5 -5 1 -11 -3 -6 -7 -267 -7 -580 0 -313 -3 -569 -7 -569 -4 0 -12 10 -18 23
-19 36 -45 74 -69 102 -7 7 -13 16 -13 19 0 3 -34 56 -75 117 -41 62 -75 114
-75 116 0 2 -11 19 -25 37 -14 18 -22 36 -18 39 3 4 2 7 -4 7 -11 0 -83 104
-83 120 0 5 -4 10 -9 10 -5 0 -13 9 -16 20 -3 11 -12 26 -18 33 -15 16 -77
106 -77 112 0 2 -34 53 -75 114 -41 60 -75 114 -75 119 0 6 -3 12 -8 14 -4 2
-24 28 -43 58 -20 30 -86 131 -148 224 -61 92 -111 172 -111 177 0 5 -4 9 -10
9 -5 0 -10 6 -10 14 0 8 -4 16 -8 18 -4 2 -30 37 -57 78 -27 41 -54 78 -60 82
-5 4 -6 8 -2 8 5 0 2 7 -7 15 -12 13 -56 15 -265 15 l-251 0 0 -22 c-1 -55 2
-2464 2 -2475 1 -7 6 -13 12 -14 56 -4 79 -3 83 4 2 4 9 4 15 1 15 -10 58 -11
91 -2 15 3 27 4 27 0 0 -6 96 -7 110 -2 3 1 10 1 15 0 24 -6 61 -5 76 1 8 4
21 4 29 -1 8 -5 22 -4 32 1 17 9 18 51 18 861 l0 851 53 -84 c68 -108 110
-173 117 -179 6 -6 43 -61 50 -75 3 -5 116 -178 253 -383 136 -205 247 -377
247 -383 0 -5 3 -9 8 -9 4 0 30 -37 57 -81 28 -45 55 -86 60 -93 20 -23 55
-75 55 -81 0 -4 6 -13 13 -20 29 -33 37 -45 37 -54 0 -5 6 -16 13 -23 23 -25
57 -77 57 -88 0 -5 4 -10 8 -10 5 0 15 -12 23 -27 8 -15 28 -50 46 -77 l32
-49 144 0 c79 0 149 3 155 7 6 3 13 3 15 -1 6 -10 176 -8 185 2 4 4 7 569 8
1255 l1 1249 -231 3 c-127 2 -241 2 -253 0z"/>
<path d="M20485 13390 l-89 -5 0 -1248 c0 -928 3 -1250 11 -1255 14 -9 77 -7
92 3 6 3 11 3 11 -2 0 -4 25 -8 55 -8 30 0 55 4 55 8 0 5 5 5 11 1 16 -10 58
-11 92 -2 15 3 27 4 27 0 0 -9 93 -8 106 1 6 3 15 2 22 -2 13 -8 76 -5 99 3 7
3 13 2 13 -2 0 -9 698 -7 707 2 4 4 8 52 8 106 l1 100 -516 1 c-283 1 -520 1
-526 0 -9 -1 -12 123 -12 472 l0 473 470 -1 c462 0 471 0 478 20 4 11 4 25 -1
30 -4 6 -5 16 -1 22 8 13 7 117 -2 131 -4 7 -167 10 -459 11 -248 0 -459 0
-468 1 -16 0 -17 40 -17 465 l0 465 22 1 c54 1 172 1 181 -1 6 -1 12 -1 15 0
15 5 60 5 60 -1 0 -4 12 -4 28 0 15 5 36 5 47 1 12 -4 23 -3 27 4 5 8 8 7 8
-2 0 -7 5 -10 11 -6 14 8 129 11 129 3 0 -3 23 -3 50 1 28 4 53 3 56 -2 3 -5
10 -5 16 -2 13 8 305 7 318 -1 6 -3 10 -2 10 2 0 5 17 8 38 6 l37 -2 0 105 0
104 -75 1 c-513 3 -1073 3 -1145 -1z"/>
<path d="M9999 13368 c-4 -123 -3 -198 3 -198 4 0 5 -7 1 -15 -8 -23 -9 -465
-1 -465 4 0 5 -7 2 -15 -9 -22 -10 -465 -2 -465 4 0 5 -7 1 -15 -8 -23 -9
-465 -1 -465 4 0 5 -7 2 -15 -9 -24 -10 -465 -1 -465 5 0 5 -5 2 -11 -4 -6 -7
-79 -7 -162 0 -193 1 -202 8 -194 4 3 15 2 25 -3 12 -7 20 -7 24 0 4 6 10 8
15 5 16 -10 81 -12 86 -3 3 5 10 5 16 2 15 -9 128 -11 128 -2 0 4 6 5 13 2 24
-9 98 -10 103 -2 3 5 10 5 16 2 15 -10 108 -11 108 -2 0 4 6 5 13 2 24 -9 98
-10 103 -2 3 5 10 5 16 2 14 -9 108 -11 108 -2 0 4 6 5 13 2 24 -9 98 -10 103
-2 3 5 10 5 16 2 10 -7 199 -10 223 -4 6 1 15 1 20 0 23 -4 94 -2 103 4 6 3
13 3 15 -1 4 -7 87 -8 167 -4 14 1 16 29 15 206 0 131 -3 205 -10 205 -5 0
-219 2 -474 3 l-465 2 0 318 c-1 176 2 323 5 329 4 7 151 10 415 10 224 0 413
2 418 4 9 4 12 163 7 367 l-1 27 -420 0 c-329 0 -420 3 -421 13 -3 36 -4 575
-1 593 4 20 7 20 469 20 256 -1 468 1 472 4 4 3 7 96 7 208 l-1 202 -727 0
-728 0 -1 -22z"/>
<path d="M18164 12136 c0 -1119 2 -1256 16 -1257 8 -1 24 -2 35 -3 11 0 28 2
37 6 9 5 19 5 22 0 5 -9 69 -7 85 2 5 4 12 2 15 -3 3 -5 15 -7 26 -4 19 5 20
16 22 527 l3 521 225 0 225 1 38 -59 c20 -32 37 -59 37 -61 0 -1 36 -62 80
-135 44 -73 80 -135 80 -137 0 -3 16 -28 35 -57 19 -28 35 -54 35 -57 0 -7
275 -471 288 -486 5 -6 13 -20 16 -32 4 -12 13 -22 19 -23 7 0 70 -1 141 -2
96 -2 133 1 143 11 10 11 11 16 1 27 -32 35 -38 45 -38 60 0 9 -4 13 -10 10
-5 -3 -10 3 -10 14 0 10 -3 21 -8 23 -4 2 -54 82 -112 178 -57 96 -108 177
-112 178 -5 2 -6 7 -3 12 3 4 -2 13 -10 20 -8 7 -15 17 -15 22 0 5 -11 24 -24
41 -13 18 -36 55 -51 82 -15 28 -36 62 -46 77 -11 14 -19 31 -19 37 0 6 -4 11
-10 11 -5 0 -10 5 -10 11 0 6 -12 29 -27 52 -45 68 -52 81 -65 107 -7 14 -15
27 -18 30 -11 10 -33 60 -29 64 3 3 20 8 38 11 18 3 49 12 67 20 19 8 35 14
37 14 5 -1 65 23 97 39 33 16 40 21 75 50 8 7 15 10 15 7 0 -3 8 3 18 13 10 9
29 26 43 38 78 67 142 171 174 279 10 33 20 67 23 75 25 75 19 252 -13 395 -8
35 -72 171 -95 199 -30 39 -116 123 -150 149 -39 29 -152 87 -180 92 -10 2
-29 9 -42 16 -13 7 -24 12 -25 11 -2 -1 -4 -2 -5 -1 -10 3 -39 8 -72 14 -21 4
-48 9 -60 13 -11 3 -230 7 -486 9 l-466 4 0 -1255z m886 1029 c30 -4 64 -8 75
-10 33 -5 118 -35 143 -51 12 -8 22 -12 22 -8 0 3 19 -9 43 -28 56 -44 67 -55
67 -67 0 -6 4 -11 9 -11 27 0 90 -155 97 -238 2 -26 5 -55 7 -65 3 -17 -8
-128 -18 -182 -7 -37 -72 -168 -95 -192 -90 -94 -198 -147 -345 -170 -22 -3
-173 -6 -335 -7 l-295 -1 -3 514 c-1 303 2 517 7 520 13 9 556 5 621 -4z"/>
<path d="M22283 13377 c-11 -18 -6 -2478 5 -2489 12 -12 82 -17 88 -6 3 4 11
5 18 2 23 -9 97 -10 102 -2 3 5 10 5 16 2 15 -10 108 -10 108 -1 0 5 5 5 10 2
15 -9 104 -10 118 -1 7 4 12 3 12 -3 0 -6 7 -8 15 -5 13 5 14 162 14 1258 l-1
1252 -250 0 c-139 0 -252 -4 -255 -9z"/>
<path d="M23409 13380 c-1 -3 -2 -567 -3 -1255 l-1 -1250 167 0 c93 0 168 4
168 8 0 5 5 5 11 1 16 -10 58 -11 92 -2 15 3 27 4 27 0 0 -4 25 -7 55 -7 30 0
55 4 55 8 0 5 5 5 11 1 16 -10 58 -11 92 -2 15 3 27 4 27 0 0 -9 98 -8 106 1
4 3 14 3 23 -1 9 -4 30 -6 46 -5 31 3 46 4 68 2 23 -2 151 12 242 27 107 17
276 73 370 122 78 40 120 64 125 71 3 3 25 20 49 36 41 27 163 143 202 192 19
23 103 146 105 153 12 38 18 50 25 50 5 0 9 5 9 11 0 5 10 31 21 57 12 25 22
51 23 57 3 14 27 97 34 115 7 20 9 29 16 65 3 17 9 48 13 70 10 53 10 363 0
440 -4 33 -18 101 -32 150 -35 124 -34 123 -76 213 -16 35 -29 65 -29 67 0 2
-24 39 -52 82 -58 86 -248 283 -273 283 -3 0 -26 15 -52 34 -53 37 -212 116
-235 116 -8 0 -18 4 -23 9 -6 6 -21 12 -35 14 -14 2 -32 7 -40 10 -26 10 -104
29 -140 33 -19 3 -44 7 -55 11 -11 3 -48 7 -82 9 -35 1 -68 6 -73 9 -6 4 -17
1 -25 -5 -8 -7 -15 -8 -15 -3 0 9 -939 13 -941 3z m713 -425 c26 0 50 3 54 7
4 4 11 5 17 1 5 -3 58 -7 117 -8 59 -2 120 -6 136 -9 16 -3 40 -8 53 -11 25
-5 85 -22 111 -32 8 -4 17 -7 20 -7 16 -4 111 -54 148 -79 73 -50 192 -183
192 -215 0 -6 4 -12 8 -14 11 -4 55 -115 72 -176 11 -42 15 -66 27 -147 8 -58
7 -231 -2 -290 -9 -63 -45 -207 -55 -220 -4 -5 -11 -21 -15 -33 -8 -29 -63
-119 -88 -147 -50 -54 -102 -105 -107 -105 -4 0 -17 -9 -30 -20 -13 -11 -29
-20 -37 -20 -7 0 -13 -4 -13 -9 0 -9 -126 -64 -175 -76 -62 -15 -71 -16 -112
-20 -23 -1 -45 -5 -50 -8 -4 -2 -115 -5 -245 -6 l-238 -1 0 824 0 824 70 -1
c38 0 73 2 77 6 3 4 9 4 12 0 3 -5 27 -8 53 -8z"/>
<path d="M12076 13350 c-6 -11 -1 -2459 5 -2465 10 -9 90 -12 95 -3 3 5 10 5
16 2 17 -11 119 -10 127 1 5 6 7 441 7 968 -1 528 2 961 5 962 3 2 30 -51 59
-118 30 -67 58 -125 63 -128 4 -3 7 -10 6 -15 -2 -9 6 -27 97 -223 24 -51 44
-100 44 -107 0 -8 5 -14 12 -14 6 0 8 -3 5 -7 -4 -3 0 -17 8 -30 9 -13 12 -23
9 -23 -4 0 1 -9 12 -21 10 -12 18 -22 16 -23 -5 -2 9 -36 67 -163 28 -62 51
-115 51 -118 0 -3 18 -41 40 -85 21 -44 39 -83 39 -86 0 -2 8 -24 19 -47 11
-23 36 -77 56 -120 20 -43 36 -80 36 -82 0 -4 20 -50 91 -202 21 -46 35 -83
31 -83 -4 0 -2 -4 3 -8 6 -4 26 -43 45 -87 44 -104 64 -140 78 -141 7 -1 13
-2 15 -3 6 -6 107 -5 107 0 0 3 14 4 30 1 25 -4 30 -1 30 17 0 11 5 21 10 21
6 0 10 6 10 14 0 13 12 41 90 211 65 140 92 201 94 210 1 6 16 39 32 75 17 36
39 86 50 112 10 27 22 48 27 48 4 0 7 7 7 15 0 8 4 23 9 33 15 28 71 153 71
157 0 3 15 37 34 77 59 126 86 190 86 203 0 8 3 15 8 17 8 4 42 66 42 78 0 8
20 54 96 218 19 41 34 75 34 77 0 1 12 29 27 61 15 33 27 61 28 64 0 3 10 25
22 50 12 25 37 81 57 125 l35 80 1 -977 c0 -725 3 -979 11 -984 17 -10 60 -11
87 -2 12 4 22 4 22 0 0 -8 114 -7 128 2 4 2 8 560 8 1238 l-1 1233 -137 0
-137 0 -45 -100 c-25 -55 -55 -122 -67 -150 -12 -27 -23 -52 -24 -55 0 -3 -9
-20 -18 -37 -10 -18 -18 -36 -18 -40 0 -5 -16 -41 -35 -81 -19 -41 -34 -76
-34 -78 0 -2 -16 -38 -35 -79 -19 -41 -35 -77 -35 -80 0 -3 -13 -32 -30 -65
-17 -33 -30 -62 -30 -65 0 -3 -15 -38 -34 -77 -18 -40 -50 -111 -71 -158 -20
-47 -51 -114 -68 -150 -17 -36 -32 -69 -33 -75 -1 -5 -15 -37 -30 -70 -15 -33
-28 -62 -29 -65 -2 -5 -20 -46 -63 -140 -11 -25 -41 -92 -67 -150 -70 -158
-80 -179 -114 -253 -17 -37 -31 -74 -31 -82 0 -8 -4 -15 -8 -15 -4 0 -14 -17
-22 -37 l-13 -38 -18 40 c-45 100 -63 140 -64 145 -1 3 -11 26 -23 53 -12 26
-32 68 -44 95 -12 26 -22 49 -23 52 -1 3 -9 22 -18 44 -9 21 -17 42 -17 47 0
5 -4 9 -9 9 -5 0 -12 11 -15 25 -4 14 -17 49 -31 78 -13 28 -54 120 -90 202
-87 196 -102 229 -133 295 -14 30 -26 60 -28 65 -1 6 -19 46 -39 90 -21 44
-72 159 -115 255 -140 315 -128 288 -185 413 -19 43 -35 80 -35 82 0 5 -62
138 -68 145 -5 7 -263 7 -266 0z"/>
<path d="M2734 13111 c-5 -5 -38 -23 -74 -42 -36 -18 -77 -42 -92 -53 -26 -18
-26 -20 -10 -35 9 -9 44 -47 77 -86 33 -38 70 -80 82 -92 13 -12 23 -24 23
-27 0 -2 22 -28 50 -58 27 -29 50 -56 50 -60 0 -4 -13 -16 -30 -28 -16 -12
-30 -18 -30 -13 0 4 -4 3 -8 -3 -8 -12 -79 -58 -128 -84 -28 -15 -34 -15 -70
0 -52 22 -147 17 -213 -12 -56 -25 -62 -36 -30 -58 12 -8 27 -20 33 -25 6 -6
29 -24 51 -40 22 -16 45 -34 50 -39 6 -6 26 -23 46 -38 20 -14 36 -32 37 -40
4 -55 11 -109 15 -115 3 -5 8 -32 11 -62 10 -83 17 -103 33 -97 33 13 113 72
113 83 0 7 4 13 9 13 11 0 37 63 46 111 6 30 14 38 78 69 40 19 74 35 77 35 3
1 24 11 48 23 l42 23 12 -28 c6 -16 12 -35 14 -43 2 -8 7 -23 13 -35 16 -34
74 -199 74 -212 0 -7 4 -13 9 -13 4 0 7 -3 7 -7 -1 -5 0 -11 1 -15 1 -5 3 -11
5 -15 1 -5 7 -20 13 -35 l11 -28 46 22 c25 12 45 26 45 30 0 4 7 8 15 8 18 0
49 17 82 45 17 14 22 26 19 45 -5 22 -13 103 -21 210 -1 19 -6 69 -10 110 -14
152 -18 135 39 165 28 15 78 42 111 61 33 19 80 44 104 56 28 15 55 40 73 68
25 39 29 52 25 96 -6 61 -20 86 -69 121 -36 24 -77 36 -123 35 -21 -1 -186
-80 -196 -95 -3 -5 -9 -8 -13 -7 -3 0 -35 -15 -70 -35 -75 -42 -52 -50 -245
85 -68 47 -131 90 -142 96 -11 6 -30 20 -43 30 -36 31 -63 43 -72 35z"/>
<path d="M2317 12249 c-32 -21 -62 -39 -66 -39 -4 0 -16 -7 -26 -15 -11 -9
-65 -47 -120 -86 -55 -38 -107 -75 -115 -82 -8 -7 -45 -34 -82 -61 -38 -28
-68 -54 -68 -59 0 -4 -4 -6 -9 -2 -6 3 -13 0 -18 -7 -4 -7 -37 -38 -73 -68
-107 -91 -302 -289 -379 -385 -39 -49 -81 -101 -91 -113 -11 -13 -20 -27 -20
-32 0 -5 -6 -15 -13 -22 -7 -7 -30 -43 -51 -80 -21 -37 -42 -70 -47 -74 -5 -3
-7 -9 -4 -14 3 -5 -3 -24 -13 -42 -20 -36 -57 -159 -68 -223 -16 -98 -3 -224
32 -302 8 -17 14 -36 14 -42 0 -6 4 -11 9 -11 5 0 13 -9 16 -20 7 -23 140
-160 155 -160 5 0 15 -6 22 -13 7 -7 32 -21 56 -31 23 -11 42 -19 43 -20 0 -1
2 -23 5 -51 3 -27 7 -55 9 -62 3 -8 397 -11 1594 -11 l1591 -1 1 27 c1 15 0
32 -1 37 -1 6 -2 156 -2 335 1 333 -1 370 -18 370 -10 0 -51 32 -106 85 -18
17 -45 42 -60 57 l-29 27 0 -357 0 -357 -1384 0 -1384 0 -2 55 c-1 30 -6 98
-10 150 -4 52 -9 122 -11 155 -4 67 -9 150 -19 270 -3 44 -8 114 -11 155 -8
122 -11 150 -16 155 -3 4 -54 -61 -125 -160 -19 -26 -45 -72 -50 -87 -3 -10
-9 -18 -13 -18 -8 0 -7 -46 5 -205 3 -44 7 -111 9 -150 7 -119 18 -240 22
-247 3 -4 0 -9 -5 -12 -9 -6 -76 39 -110 73 -10 10 -27 33 -37 52 -11 19 -23
37 -27 40 -5 3 -9 10 -9 15 0 5 -2 14 -4 19 -31 98 -21 247 23 355 3 8 7 18 7
22 1 4 9 16 18 28 10 11 14 20 8 20 -8 0 17 58 31 70 3 3 18 29 34 58 15 28
32 52 37 52 4 0 8 7 8 15 0 8 3 15 8 15 4 0 21 21 37 45 17 25 33 45 38 45 4
0 7 4 7 9 0 18 227 256 345 361 97 86 275 226 340 266 17 10 32 21 35 25 8 9
219 148 251 165 24 12 29 21 29 53 0 30 -5 40 -25 51 -14 7 -25 17 -25 22 0
18 -38 5 -93 -33z"/>
<path d="M2040 11390 c-12 -3 -21 -8 -21 -12 1 -5 1 -12 1 -16 0 -6 1066 -10
1091 -3 3 0 6 8 6 16 0 11 -13 15 -51 16 -297 3 -1010 3 -1026 -1z"/>
<path d="M2193 11082 c-14 -2 -23 -10 -23 -21 0 -18 0 -18 130 -20 19 -1 111
0 203 2 93 1 171 -1 174 -6 2 -4 9 -5 14 -1 6 3 34 6 62 5 29 -1 61 -1 72 -1
11 0 114 1 229 3 157 1 210 5 213 14 3 7 -3 16 -12 19 -24 10 -215 10 -215 1
0 -5 -5 -5 -11 -1 -6 4 -44 7 -84 7 -40 0 -78 -3 -84 -7 -6 -4 -11 -3 -11 3 0
5 -10 8 -22 5 -27 -5 -51 -5 -144 -3 -39 1 -76 -1 -82 -5 -6 -3 -13 -3 -15 1
-3 5 -45 7 -94 5 -48 -2 -94 -3 -100 -2 -28 1 -50 2 -88 1 -22 -1 -51 0 -65 2
-14 1 -35 1 -47 -1z"/>
<path d="M3100 10772 c-19 -1 -201 -3 -405 -5 -321 -2 -370 -4 -370 -17 0 -13
68 -15 540 -18 297 -1 546 0 552 3 7 2 10 11 7 20 -6 14 -26 16 -145 13 -77
-2 -140 -1 -142 2 -1 3 -18 4 -37 2z"/>
</g>
</svg>
